<svg width="12" height="19" viewBox="0 0 12 19" fill="none" xmlns="http://www.w3.org/2000/svg">
<path d="M5.99998 0V10.55C5.23689 10.1094 4.34968 9.93317 3.47613 10.0486C2.60258 10.164 1.79158 10.5646 1.16907 11.1882C0.546563 11.8118 0.147388 12.6235 0.0335364 13.4973C-0.0803153 14.371 0.0975274 15.2579 0.539446 16.0202C0.981364 16.7825 1.66263 17.3776 2.47744 17.713C3.29225 18.0484 4.195 18.1054 5.04551 17.8751C5.89602 17.6448 6.64668 17.1401 7.18093 16.4393C7.71517 15.7386 8.00309 14.8811 7.99998 14V4H12V0M3.99998 16C3.60442 16 3.21774 15.8827 2.88884 15.6629C2.55994 15.4432 2.3036 15.1308 2.15222 14.7654C2.00085 14.3999 1.96124 13.9978 2.03841 13.6098C2.11558 13.2219 2.30606 12.8655 2.58577 12.5858C2.86547 12.3061 3.22184 12.1156 3.6098 12.0384C3.99776 11.9613 4.3999 12.0009 4.76535 12.1522C5.1308 12.3036 5.44316 12.56 5.66292 12.8889C5.88268 13.2178 5.99998 13.6044 5.99998 14C5.99998 14.5304 5.78927 15.0391 5.41419 15.4142C5.03912 15.7893 4.53041 16 3.99998 16Z" fill="white"/>
</svg>
