<svg width="7" height="10" viewBox="0 0 7 10" fill="none" xmlns="http://www.w3.org/2000/svg">
<path d="M5.60086 0C5.05213 0.521459 4.30218 0.884659 3.46718 1.03333C3.51963 0.864832 3.50452 0.687528 3.42396 0.526176C3.3434 0.364823 3.2014 0.227476 3.01779 0.133307C2.83419 0.039139 2.61813 -0.00714935 2.3998 0.000904534C2.18147 0.00895842 1.97175 0.0709526 1.79993 0.178232C1.6281 0.285511 1.50275 0.432721 1.44137 0.59931C1.37999 0.765899 1.38564 0.943551 1.45754 1.10746C1.52944 1.27138 1.66399 1.41337 1.84242 1.51362C2.02084 1.61388 2.23424 1.66738 2.4528 1.66667H2.6207C3.49521 1.66573 4.34973 1.45886 5.07619 1.07222L4.13177 3.38889C3.59106 3.87963 2.86866 4.2219 2.06804 4.36667C2.12049 4.19817 2.10539 4.02086 2.02482 3.85951C1.94426 3.69816 1.80226 3.56081 1.61865 3.46664C1.43505 3.37247 1.219 3.32618 1.00066 3.33424C0.78233 3.34229 0.572613 3.40429 0.400789 3.51157C0.228966 3.61884 0.103613 3.76605 0.0422306 3.93264C-0.0191515 4.09923 -0.0134988 4.27688 0.0583993 4.4408C0.130297 4.60471 0.264852 4.74671 0.443279 4.84696C0.621705 4.94721 0.835098 5.00071 1.05366 5H1.22156C2.09607 4.99906 2.95059 4.7922 3.67705 4.40556L1.40345 10H2.80259L7 0H5.60086Z" fill="white"/>
</svg>
